# xmcd
#
# Track frame offsets: 
#        150
#        13922
#        29117
#        41935
#        54957
#        68625
#        82215
#        98015
#        112554
#        124162
#        136797
#        150212
#        162917
#        175747
#        188535
#        203910
#        218535
#        230947
#        244820
#        258412
#        270975
#        283625
#        295607
#        307772
#        320632
#
# Disc length: 4481 seconds
#
# Revision: 0
# Processed by: cddbd v1.5.2PL0 Copyright (c) Steve Scherf et al.
# Submitted via: ExactAudioCopyFreeDBPlugin 1.0
#
DISCID=56117f19
DTITLE=Scrapper Blackwell - Mr Scrapper's Blues Guitar 1
DYEAR=2011
DGENRE=Blues
TTITLE0=Kokomo Blues
TTITLE1=Penal Farm Blues
TTITLE2=Mr. Scrapper's Blues
TTITLE3=Down and Out Blues
TTITLE4=Trouble Blues, Pt. 1
TTITLE5=Trouble Blues, Pt. 2
TTITLE6=Trouble Blues, Pt. 1
TTITLE7=Springtime Blues
TTITLE8=Rambling Blues
TTITLE9=Blue Day Blues
TTITLE10=Down South Blues
TTITLE11=Sneaking Blues
TTITLE12=Hard Time Blues
TTITLE13=Back Door Blues
TTITLE14=Morning Mail Blues
TTITLE15=Blues That Make Me Cry
TTITLE16=D Blues
TTITLE17=A Blues
TTITLE18=My Old Pal Blues
TTITLE19=Bad Liquor Blues
TTITLE20=Alley Sally Blues
TTITLE21=No Good Woman Blues
TTITLE22=Motherless Boy Blues
TTITLE23=Wayback Blues
TTITLE24=Texas Stomp
EXTD=
EXTT0=
EXTT1=
EXTT2=
EXTT3=
EXTT4=
EXTT5=
EXTT6=
EXTT7=
EXTT8=
EXTT9=
EXTT10=
EXTT11=
EXTT12=
EXTT13=
EXTT14=
EXTT15=
EXTT16=
EXTT17=
EXTT18=
EXTT19=
EXTT20=
EXTT21=
EXTT22=
EXTT23=
EXTT24=
PLAYORDER=
